<svg width="512" height="512" viewBox="0 0 200 200" fill="none" xmlns="http://www.w3.org/2000/svg">
  <!-- Algotcha Icon - Shield/Heart geometric shape -->
  <rect width="200" height="200" rx="40" fill="black"/>
  <path d="M118.095 91.539C118.009 91.432 117.924 91.347 117.839 91.219C117.796 91.155 117.754 91.07 117.732 91.006C117.668 90.899 117.604 90.792 117.562 90.665C117.519 90.579 117.498 90.494 117.477 90.387C117.434 90.281 117.391 90.174 117.37 90.067C117.327 89.854 117.306 89.641 117.306 89.449L117.029 85.397L116.837 85.973C116.816 86.016 116.816 86.037 116.795 86.058C116.773 86.101 116.773 86.122 116.773 86.165C116.752 86.208 116.731 86.229 116.709 86.272C116.603 86.506 116.475 86.741 116.304 86.933C116.283 86.954 116.262 86.997 116.24 87.018C116.048 87.231 115.835 87.423 115.622 87.572C115.58 87.594 115.537 87.636 115.494 87.658C115.26 87.807 115.025 87.914 114.77 87.999C114.748 87.999 114.748 88.02 114.727 88.02C114.45 88.106 114.173 88.127 113.896 88.148C113.874 88.148 113.832 88.17 113.81 88.17C113.746 88.17 113.683 88.148 113.64 88.148C113.533 88.148 113.427 88.127 113.341 88.127C113.235 88.106 113.128 88.084 113.022 88.063C112.958 88.042 112.894 88.042 112.83 88.02C112.787 87.999 112.766 87.999 112.745 87.978C112.702 87.956 112.681 87.956 112.638 87.935C108.929 86.421 104.581 86.4 100.808 87.935C100.766 87.956 100.744 87.956 100.702 87.956C100.659 87.978 100.638 87.978 100.595 87.999C100.531 88.02 100.446 88.02 100.382 88.042C100.275 88.063 100.169 88.106 100.062 88.106C99.956 88.127 99.849 88.127 99.743 88.127C99.636 88.127 99.551 88.127 99.444 88.127C99.338 88.127 99.21 88.106 99.103 88.084C99.018 88.063 98.933 88.063 98.847 88.042C98.741 88.02 98.613 87.978 98.506 87.935C98.421 87.914 98.336 87.871 98.272 87.85C98.165 87.807 98.059 87.743 97.952 87.679C97.867 87.636 97.803 87.594 97.718 87.53C97.632 87.466 97.547 87.38 97.462 87.317C97.398 87.253 97.313 87.189 97.249 87.125C97.163 87.039 97.099 86.954 97.035 86.869C96.972 86.783 96.908 86.719 96.865 86.634C96.801 86.549 96.758 86.442 96.716 86.336C96.694 86.272 96.652 86.208 96.609 86.144C96.588 86.101 96.588 86.08 96.588 86.037C96.567 85.994 96.567 85.973 96.545 85.952L96.353 85.397L96.076 89.641C96.034 90.451 95.671 91.198 95.096 91.752L95.075 91.773C92.325 94.588 90.748 98.384 90.641 102.415L106.691 115.636L122.763 102.436C122.656 98.384 121.057 94.588 118.223 91.688C118.18 91.645 118.137 91.581 118.095 91.539Z" fill="white"/>
  <path d="M40.7278 121.095C53.943 118.238 89.774 115.38 126.691 154.085C163.609 115.38 199.439 118.238 212.655 121.095C206.111 85.525 213.742 44.326 217.578 27.287L174.245 55.5V83.35C174.245 84.31 173.819 85.205 173.073 85.824L128.716 122.247C128.546 122.375 128.375 122.503 128.205 122.588C128.205 122.588 128.205 122.588 128.183 122.609C127.991 122.716 127.8 122.78 127.608 122.844C127.501 122.886 127.373 122.886 127.267 122.908C127.181 122.929 127.096 122.95 127.011 122.95C126.904 122.95 126.798 122.95 126.712 122.95C126.606 122.95 126.499 122.95 126.414 122.95C126.329 122.95 126.222 122.908 126.137 122.908C126.03 122.886 125.924 122.865 125.817 122.844C125.412 122.716 125.05 122.524 124.709 122.247L105.397 106.381L105.376 106.36L80.352 85.802C79.606 85.205 79.18 84.288 79.18 83.329V55.5L35.7827 27.287C39.6407 44.326 47.2715 85.525 40.7278 121.095Z" fill="white" transform="translate(-20, 0) scale(0.8)"/>
</svg>

