<svg width="32" height="32" viewBox="0 0 200 200" fill="none" xmlns="http://www.w3.org/2000/svg">
  <!-- Algotcha Icon - Shield/Heart geometric shape -->
  <path d="M118.095 111.539C118.009 111.432 117.924 111.347 117.839 111.219C117.796 111.155 117.754 111.07 117.732 111.006C117.668 110.899 117.604 110.792 117.562 110.665C117.519 110.579 117.498 110.494 117.477 110.387C117.434 110.281 117.391 110.174 117.37 110.067C117.327 109.854 117.306 109.641 117.306 109.449L117.029 105.397L116.837 105.973C116.816 106.016 116.816 106.037 116.795 106.058C116.773 106.101 116.773 106.122 116.773 106.165C116.752 106.208 116.731 106.229 116.709 106.272C116.603 106.506 116.475 106.741 116.304 106.933C116.283 106.954 116.262 106.997 116.24 107.018C116.048 107.231 115.835 107.423 115.622 107.572C115.58 107.594 115.537 107.636 115.494 107.658C115.26 107.807 115.025 107.914 114.77 107.999C114.748 107.999 114.748 108.02 114.727 108.02C114.45 108.106 114.173 108.127 113.896 108.148C113.874 108.148 113.832 108.17 113.81 108.17C113.746 108.17 113.683 108.148 113.64 108.148C113.533 108.148 113.427 108.127 113.341 108.127C113.235 108.106 113.128 108.084 113.022 108.063C112.958 108.042 112.894 108.042 112.83 108.02C112.787 107.999 112.766 107.999 112.745 107.978C112.702 107.956 112.681 107.956 112.638 107.935C108.929 106.421 104.581 106.4 100.808 107.935C100.766 107.956 100.744 107.956 100.702 107.956C100.659 107.978 100.638 107.978 100.595 107.999C100.531 108.02 100.446 108.02 100.382 108.042C100.275 108.063 100.169 108.106 100.062 108.106C99.956 108.127 99.849 108.127 99.743 108.127C99.636 108.127 99.551 108.127 99.444 108.127C99.338 108.127 99.21 108.106 99.103 108.084C99.018 108.063 98.933 108.063 98.847 108.042C98.741 108.02 98.613 107.978 98.506 107.935C98.421 107.914 98.336 107.871 98.272 107.85C98.165 107.807 98.059 107.743 97.952 107.679C97.867 107.636 97.803 107.594 97.718 107.53C97.632 107.466 97.547 107.38 97.462 107.317C97.398 107.253 97.313 107.189 97.249 107.125C97.163 107.039 97.099 106.954 97.035 106.869C96.972 106.783 96.908 106.719 96.865 106.634C96.801 106.549 96.758 106.442 96.716 106.336C96.694 106.272 96.652 106.208 96.609 106.144C96.588 106.101 96.588 106.08 96.588 106.037C96.567 105.994 96.567 105.973 96.545 105.952L96.353 105.397L96.076 109.641C96.034 110.451 95.671 111.198 95.096 111.752L95.075 111.773C92.325 114.588 90.748 118.384 90.641 122.415L106.691 135.636L122.763 122.436C122.656 118.384 121.057 114.588 118.223 111.688C118.18 111.645 118.137 111.581 118.095 111.539Z" fill="black"/>
  <path d="M20.7278 141.095C33.943 138.238 69.774 135.38 106.691 174.085C143.609 135.38 179.439 138.238 192.655 141.095C186.111 105.525 193.742 64.326 197.578 47.287L154.245 75.5V103.35C154.245 104.31 153.819 105.205 153.073 105.824L108.716 142.247C108.546 142.375 108.375 142.503 108.205 142.588C108.205 142.588 108.205 142.588 108.183 142.609C107.991 142.716 107.8 142.78 107.608 142.844C107.501 142.886 107.373 142.886 107.267 142.908C107.181 142.929 107.096 142.95 107.011 142.95C106.904 142.95 106.798 142.95 106.712 142.95C106.606 142.95 106.499 142.95 106.414 142.95C106.329 142.95 106.222 142.908 106.137 142.908C106.03 142.886 105.924 142.865 105.817 142.844C105.412 142.716 105.05 142.524 104.709 142.247L85.397 126.381L85.376 126.36L60.352 105.802C59.606 105.205 59.18 104.288 59.18 103.329V75.5L15.7827 47.287C19.6407 64.326 27.2715 105.525 20.7278 141.095Z" fill="black"/>
</svg>

