<svg width="1151" height="353" viewBox="0 0 1151 353" fill="none" xmlns="http://www.w3.org/2000/svg">
<path d="M134.348 62.7006C133.416 64.0977 129.688 71.5489 125.96 79.2329C102.661 128.83 68.8768 197.753 66.1974 201.478C65.7314 202.06 63.8675 205.087 62.1201 208.114C57.2272 216.846 61.3046 215.216 69.2263 205.204C83.6718 187.158 115.126 150.368 118.504 147.69C121.65 145.129 123.397 146.06 132.134 155.491C136.91 160.613 141.454 164.805 142.153 164.805C142.968 164.805 147.279 159.915 151.938 153.977C156.482 148.156 163.239 139.424 166.966 134.767L173.607 126.385L171.51 120.796C170.345 117.769 166.384 108.805 162.773 100.771C159.045 92.7381 153.802 81.0956 151.123 74.8087C148.327 68.5218 145.415 62.5842 144.483 61.6528C141.92 59.0915 136.328 59.5572 134.348 62.7006Z" fill="#5570F1"/>
<path d="M202.148 101.004C195.275 101.469 188.285 102.517 186.654 103.099C180.363 105.428 184.907 109.852 195.741 111.831C198.071 112.297 200.051 113.228 199.935 114.043C199.818 116.255 144.832 184.014 142.852 184.363C141.803 184.596 137.143 180.638 131.901 175.282C126.892 170.16 122.115 165.968 121.416 165.968C120.601 165.968 116.407 170.276 111.98 175.515C89.8458 202.06 66.0806 229.769 63.2847 232.214C59.7899 235.474 59.4404 237.569 62.1198 238.617C64.5662 239.548 115.941 239.548 119.436 238.617C122.115 237.919 137.143 219.174 173.606 171.208C203.313 132.205 208.439 125.802 209.72 125.453C210.536 125.336 212.167 126.966 213.332 129.295C215.662 133.486 220.205 135 221.37 131.856C222.302 129.528 222.302 103.681 221.486 101.469C220.671 99.3738 220.787 99.3738 202.148 101.004Z" fill="#5570F1"/>
<path d="M183.394 181.336C178.617 187.973 173.259 195.54 171.511 198.218L168.366 203.224L175.705 219.64C179.782 228.721 183.743 236.871 184.675 237.686C185.84 238.966 190.267 239.316 202.266 239.316C216.828 239.316 218.575 239.083 220.439 236.987C223.352 233.727 222.536 231.05 211.353 206.6C205.877 194.842 200.286 182.268 198.771 178.775C195.975 171.79 194.461 169.461 192.946 169.461C192.48 169.461 188.17 174.817 183.394 181.336Z" fill="#5570F1"/>
<path d="M254.406 239.426V60.3678H275.382V239.426H254.406ZM406.948 131.48L409.761 108.969H427.923V233.031C427.923 270.634 407.971 292.121 363.206 292.121C329.953 292.121 306.675 276.517 303.35 247.868H324.837C328.418 264.239 342.998 273.447 364.741 273.447C392.111 273.447 406.948 260.657 406.948 232.264V216.916C398.251 231.752 384.182 240.961 362.183 240.961C326.116 240.961 299.513 216.66 299.513 174.198C299.513 134.293 326.116 107.435 362.183 107.435C384.182 107.435 398.762 116.899 406.948 131.48ZM364.229 222.288C389.809 222.288 407.203 202.591 407.203 174.709C407.203 146.06 389.809 126.108 364.229 126.108C338.394 126.108 321 145.804 321 174.198C321 202.591 338.394 222.288 364.229 222.288ZM516.609 240.961C478.495 240.961 451.892 213.846 451.892 174.198C451.892 134.549 478.495 107.435 516.609 107.435C554.723 107.435 581.326 134.549 581.326 174.198C581.326 213.846 554.723 240.961 516.609 240.961ZM516.609 222.288C542.445 222.288 559.839 202.08 559.839 174.198C559.839 146.316 542.445 126.108 516.609 126.108C490.773 126.108 473.379 146.316 473.379 174.198C473.379 202.08 490.773 222.288 516.609 222.288ZM613.6 205.405V128.154H590.067V108.969H613.6V72.3903H634.576V108.969H668.341V128.154H634.576V205.149C634.576 216.149 638.413 220.241 649.668 220.241H670.387V239.426H647.621C622.553 239.426 613.6 228.427 613.6 205.405ZM743.893 240.961C705.78 240.961 680.711 215.125 680.711 174.454C680.711 134.549 706.547 107.435 744.405 107.435C776.38 107.435 796.588 125.34 801.959 153.99H779.961C776.124 136.596 763.334 126.108 744.149 126.108C719.081 126.108 702.198 146.06 702.198 174.454C702.198 202.847 719.081 222.288 744.149 222.288C762.822 222.288 775.612 211.544 779.705 194.917H801.959C796.844 223.055 775.612 240.961 743.893 240.961ZM888.905 107.435C918.066 107.435 941.855 123.55 941.855 166.78V239.426H920.88V168.059C920.88 140.944 907.834 126.619 885.324 126.619C861.023 126.619 845.931 144.781 845.931 174.198V239.426H824.956V60.3678H845.931V130.456C853.605 118.178 866.906 107.435 888.905 107.435ZM1083.96 220.241H1090.61V239.426H1079.1C1061.7 239.426 1055.82 232.008 1055.56 219.218C1047.38 230.985 1034.33 240.961 1011.82 240.961C983.172 240.961 963.731 226.636 963.731 202.847C963.731 176.756 981.893 162.175 1016.17 162.175H1054.54V153.222C1054.54 136.34 1042.52 126.108 1022.05 126.108C1003.64 126.108 991.357 134.805 988.799 148.106H967.824C970.893 122.527 991.613 107.435 1023.08 107.435C1056.33 107.435 1075.51 124.061 1075.51 154.501V211.544C1075.51 218.451 1078.07 220.241 1083.96 220.241ZM1054.54 186.22V179.825H1014.12C995.45 179.825 984.962 186.732 984.962 201.568C984.962 214.358 995.962 223.055 1013.36 223.055C1039.45 223.055 1054.54 207.963 1054.54 186.22Z" fill="black"/>
</svg>
