<svg width="1218" height="361" viewBox="0 0 1218 361" fill="none" xmlns="http://www.w3.org/2000/svg">
<path d="M189.095 181.539C189.009 181.432 188.924 181.347 188.839 181.219C188.796 181.155 188.754 181.07 188.732 181.006C188.668 180.899 188.604 180.792 188.562 180.665C188.519 180.579 188.498 180.494 188.477 180.387C188.434 180.281 188.391 180.174 188.37 180.067C188.327 179.854 188.306 179.641 188.306 179.449L188.029 175.397L187.837 175.973C187.816 176.016 187.816 176.037 187.795 176.058C187.773 176.101 187.773 176.122 187.773 176.165C187.752 176.208 187.731 176.229 187.709 176.272C187.603 176.506 187.475 176.741 187.304 176.933C187.283 176.954 187.262 176.997 187.24 177.018C187.048 177.231 186.835 177.423 186.622 177.572C186.58 177.594 186.537 177.636 186.494 177.658C186.26 177.807 186.025 177.914 185.77 177.999C185.748 177.999 185.748 178.02 185.727 178.02C185.45 178.106 185.173 178.127 184.896 178.148C184.874 178.148 184.832 178.17 184.81 178.17C184.746 178.17 184.683 178.148 184.64 178.148C184.533 178.148 184.427 178.127 184.341 178.127C184.235 178.106 184.128 178.084 184.022 178.063C183.958 178.042 183.894 178.042 183.83 178.02C183.787 177.999 183.766 177.999 183.745 177.978C183.702 177.956 183.681 177.956 183.638 177.935C179.929 176.421 175.581 176.4 171.808 177.935C171.766 177.956 171.744 177.956 171.702 177.956C171.659 177.978 171.638 177.978 171.595 177.999C171.531 178.02 171.446 178.02 171.382 178.042C171.275 178.063 171.169 178.106 171.062 178.106C170.956 178.127 170.849 178.127 170.743 178.127C170.636 178.127 170.551 178.127 170.444 178.127C170.338 178.127 170.21 178.106 170.103 178.084C170.018 178.063 169.933 178.063 169.847 178.042C169.741 178.02 169.613 177.978 169.506 177.935C169.421 177.914 169.336 177.871 169.272 177.85C169.165 177.807 169.059 177.743 168.952 177.679C168.867 177.636 168.803 177.594 168.718 177.53C168.632 177.466 168.547 177.38 168.462 177.317C168.398 177.253 168.313 177.189 168.249 177.125C168.163 177.039 168.099 176.954 168.035 176.869C167.972 176.783 167.908 176.719 167.865 176.634C167.801 176.549 167.758 176.442 167.716 176.336C167.694 176.272 167.652 176.208 167.609 176.144C167.588 176.101 167.588 176.08 167.588 176.037C167.567 175.994 167.567 175.973 167.545 175.952L167.353 175.397L167.076 179.641C167.034 180.451 166.671 181.198 166.096 181.752L166.075 181.773C163.325 184.588 161.748 188.384 161.641 192.415L177.691 205.636L193.763 192.436C193.656 188.384 192.057 184.588 189.223 181.688C189.18 181.645 189.137 181.581 189.095 181.539Z" fill="black"/>
<path d="M91.7278 211.095C104.943 208.238 140.774 205.38 177.691 244.085C214.609 205.38 250.439 208.238 263.655 211.095C257.111 175.525 264.742 134.326 268.578 117.287L225.245 145.5V173.35C225.245 174.31 224.819 175.205 224.073 175.824L179.716 212.247C179.546 212.375 179.375 212.503 179.205 212.588C179.205 212.588 179.205 212.588 179.183 212.609C178.991 212.716 178.8 212.78 178.608 212.844C178.501 212.886 178.373 212.886 178.267 212.908C178.181 212.929 178.096 212.95 178.011 212.95C177.904 212.95 177.798 212.95 177.712 212.95C177.606 212.95 177.499 212.95 177.414 212.95C177.329 212.95 177.222 212.908 177.137 212.908C177.03 212.886 176.924 212.865 176.817 212.844C176.412 212.716 176.05 212.524 175.709 212.247L156.397 196.381L156.376 196.36L131.352 175.802C130.606 175.205 130.18 174.288 130.18 173.329V145.5L86.7827 117.287C90.6407 134.326 98.2715 175.525 91.7278 211.095Z" fill="black"/>
<path d="M371.201 212.219H328.875L321.872 232.478H299.491L337.706 126.006H362.523L400.737 232.478H378.204L371.201 212.219ZM365.415 195.159L350.038 150.682L334.661 195.159H365.415ZM436.337 215.57H471.354V232.478H415.022V126.158H436.337V215.57ZM558.895 158.145C556.459 153.677 553.109 150.275 548.846 147.94C544.583 145.604 539.611 144.437 533.926 144.437C527.633 144.437 522.05 145.858 517.178 148.702C512.306 151.545 508.5 155.607 505.76 160.887C503.019 166.168 501.649 172.261 501.649 179.166C501.649 186.274 503.019 192.468 505.76 197.749C508.602 203.029 512.51 207.091 517.483 209.934C522.457 212.778 528.242 214.199 534.839 214.199C542.96 214.199 549.608 212.067 554.784 207.802C559.961 203.435 563.362 197.393 564.985 189.676H528.445V173.378H585.995V191.961C584.575 199.374 581.53 206.228 576.86 212.524C572.192 218.82 566.153 223.897 558.743 227.756C551.435 231.513 543.213 233.392 534.078 233.392C523.827 233.392 514.54 231.107 506.216 226.537C497.995 221.866 491.5 215.418 486.728 207.193C482.06 198.967 479.725 189.625 479.725 179.166C479.725 168.706 482.06 159.364 486.728 151.139C491.5 142.812 497.995 136.364 506.216 131.794C514.54 127.123 523.777 124.787 533.926 124.787C545.903 124.787 556.307 127.732 565.137 133.622C573.968 139.41 580.058 147.585 583.407 158.145H558.895ZM651.094 233.544C641.148 233.544 632.013 231.209 623.689 226.537C615.367 221.866 608.769 215.418 603.897 207.193C599.025 198.866 596.589 189.473 596.589 179.013C596.589 168.656 599.025 159.364 603.897 151.139C608.769 142.812 615.367 136.313 623.689 131.642C632.013 126.97 641.148 124.635 651.094 124.635C661.143 124.635 670.278 126.97 678.499 131.642C686.823 136.313 693.37 142.812 698.14 151.139C703.012 159.364 705.448 168.656 705.448 179.013C705.448 189.473 703.012 198.866 698.14 207.193C693.37 215.418 686.823 221.866 678.499 226.537C670.177 231.209 661.042 233.544 651.094 233.544ZM651.094 214.504C657.489 214.504 663.122 213.082 667.994 210.239C672.866 207.294 676.672 203.131 679.413 197.749C682.153 192.367 683.524 186.122 683.524 179.013C683.524 171.905 682.153 165.711 679.413 160.43C676.672 155.048 672.866 150.936 667.994 148.092C663.122 145.249 657.489 143.827 651.094 143.827C644.7 143.827 639.016 145.249 634.042 148.092C629.17 150.936 625.364 155.048 622.624 160.43C619.883 165.711 618.513 171.905 618.513 179.013C618.513 186.122 619.883 192.367 622.624 197.749C625.364 203.131 629.17 207.294 634.042 210.239C639.016 213.082 644.7 214.504 651.094 214.504ZM793.625 126.158V143.37H765.306V232.478H743.991V143.37H715.673V126.158H793.625ZM804.001 179.166C804.001 168.706 806.335 159.364 811.004 151.139C815.774 142.812 822.219 136.364 830.34 131.794C838.561 127.123 847.747 124.787 857.897 124.787C869.773 124.787 880.176 127.834 889.108 133.926C898.039 140.019 904.282 148.448 907.835 159.212H883.323C880.887 154.134 877.435 150.326 872.97 147.788C868.605 145.249 863.53 143.98 857.745 143.98C851.553 143.98 846.022 145.452 841.15 148.397C836.378 151.24 832.624 155.302 829.883 160.583C827.243 165.863 825.925 172.057 825.925 179.166C825.925 186.172 827.243 192.367 829.883 197.749C832.624 203.029 836.378 207.142 841.15 210.087C846.022 212.93 851.553 214.352 857.745 214.352C863.53 214.352 868.605 213.082 872.97 210.544C877.435 207.904 880.887 204.045 883.323 198.967H907.835C904.282 209.833 898.039 218.312 889.108 224.405C880.278 230.396 869.873 233.392 857.897 233.392C847.747 233.392 838.561 231.107 830.34 226.537C822.219 221.866 815.774 215.418 811.004 207.193C806.335 198.967 804.001 189.625 804.001 179.166ZM1014.19 126.158V232.478H992.877V187.239H947.355V232.478H926.04V126.158H947.355V169.874H992.877V126.158H1014.19ZM1100.34 212.219H1058.01L1051.01 232.478H1028.63L1066.84 126.006H1091.66L1129.87 232.478H1107.34L1100.34 212.219ZM1094.55 195.159L1079.17 150.682L1063.8 195.159H1094.55Z" fill="black"/>
</svg>
